<svg xmlns="http://www.w3.org/2000/svg" width="600" height="620" viewBox="0 0 600 620" role="img" aria-labelledby="title desc">
  <!-- Generated by scripts/generate-mxu-assets.mjs from assets/mxu-event-schedule.json. -->
  <title id="title">Clocked wavefront observatory for a three by three output-stationary MXU</title>
  <desc id="desc">Conceptual cycle trace, not a physical TPU floorplan. Blue A packets move right and amber B packets move down through nine crosspoint processing elements. Each node locks three accumulator arcs, white phase rings mark synchronized MAC events, and teal contacts close in a one two three two one anti-diagonal ready wave. The active MAC envelope is one three six seven six three one.</desc>
  <style>
    :root { --canvas:#f4f6f8; --substrate:#e7ecf1; --substrate-edge:#7a899a; --well:#d9e0e8; --core:#f8fafb; --ink:#172033; --muted:#5d6b7f; --trace:#8998aa; --a:#1f66d1; --b:#d39400; --mac:#172033; --ready:#087f66; --inactive:#aeb9c5; --sweep:#087f66; }
    @media (prefers-color-scheme: dark) { :root { --canvas:#070c13; --substrate:#0e1622; --substrate-edge:#53657a; --well:#162334; --core:#0a111b; --ink:#edf3fa; --muted:#9cacbf; --trace:#2c3b4d; --a:#67a2ff; --b:#f1c75b; --mac:#f6f8fa; --ready:#54d2b3; --inactive:#3e5065; --sweep:#54d2b3; } }
    @media (prefers-contrast: more) { :root { --trace:#65758a; --substrate-edge:#314157; --inactive:#65758a; } .trace,.node-boundary,.accumulator-base { stroke-width:2.5; } }
    * { shape-rendering:geometricPrecision; }
    text { font-family:ui-monospace,SFMono-Regular,Menlo,Monaco,Consolas,"Liberation Mono",monospace; letter-spacing:0; fill:var(--ink); }
    .instrument-mark { font-size:12px; font-weight:800; }
    .instrument-note,.port-text,.envelope-label { font-size:9px; font-weight:700; fill:var(--muted); }
    .substrate { fill:var(--substrate); stroke:var(--substrate-edge); stroke-width:1.5; }
    .substrate-inset { fill:none; stroke:var(--substrate-edge); stroke-width:1; opacity:.42; }
    .trace { fill:none; stroke:var(--trace); stroke-width:2; opacity:.68; }
    .trace-a { stroke:var(--a); opacity:.34; }
    .trace-b { stroke:var(--b); opacity:.34; }
    .port-mark { fill:none; stroke-width:4; stroke-linecap:square; }
    .port-a { stroke:var(--a); } .port-b { stroke:var(--b); }
    .node-seat { fill:var(--well); stroke:var(--substrate-edge); stroke-width:1; }
    .node-boundary { fill:var(--substrate); stroke:var(--substrate-edge); stroke-width:1.5; }
    .node-core { fill:var(--core); stroke:var(--substrate-edge); stroke-width:1; }
    .node-contact { fill:none; stroke:var(--trace); stroke-width:2; }
    .compute-core { fill:var(--mac); opacity:.88; }
    .accumulator-base { fill:none; stroke:var(--inactive); stroke-width:4; stroke-linecap:butt; }
    .accumulator-active { fill:none; stroke:var(--a); stroke-width:4; stroke-linecap:butt; }
    .phase-ring { fill:none; stroke:var(--mac); stroke-width:3; }
    .ready-pad-base { fill:var(--inactive); }
    .ready-contact circle { fill:var(--ready); }
    .ready-contact path { fill:none; stroke:var(--ready); stroke-width:4; stroke-linecap:square; }
    .packet-a { fill:var(--a); } .packet-b { fill:var(--b); }
    .packet-label { font-size:7px; font-weight:800; text-anchor:middle; }
    .packet-label-a { fill:#fff; } .packet-label-b { fill:#172033; }
    .sweep-band { fill:none; stroke:var(--sweep); stroke-width:18; opacity:.12; }
    .sweep-line { fill:none; stroke:var(--sweep); stroke-width:2; opacity:.9; }
    .envelope-bar { opacity:.72; }
    .envelope-active { fill:var(--a); } .envelope-ready { fill:var(--ready); }
    .cursor-active { fill:var(--mac); stroke:var(--a); stroke-width:2; }
    .cursor-ready { fill:var(--mac); stroke:var(--ready); stroke-width:2; }
    .final-only { display:none; }
    @media (prefers-reduced-motion: reduce) { .motion-only { display:none; } .final-only { display:inline; } }
  </style>
  <defs><g id="node-shell">
    <circle r="41" class="node-seat"/>
    <circle r="37" class="node-boundary"/>
    <circle r="27" class="node-core"/>
    <path d="M-25 0 H-33 M25 0 H33 M0 -25 V-33 M0 25 V33" class="node-contact"/>
    <path d="M0 -7 L7 0 L0 7 L-7 0 Z" class="compute-core"/>
    <path d="M-40.4068 -14.7069 A43 43 0 0 1 21.5 -37.2391" class="accumulator-base"/><path d="M32.9399 -27.6399 A43 43 0 0 1 21.5 37.2391" class="accumulator-base"/><path d="M7.4669 42.3467 A43 43 0 0 1 -43 0" class="accumulator-base"/>
    <circle cx="-7" cy="28" r="3" class="ready-pad-base"/>
    <circle cx="7" cy="28" r="3" class="ready-pad-base"/>
  </g></defs>
  <rect width="600" height="620" fill="var(--canvas)"/>
  <text x="22" y="27" class="instrument-mark">MXU TRACE · 3×3 · CLK 0–7</text>
  <text x="578" y="27" class="instrument-note" text-anchor="end">27 MAC · 9 C</text>
  <path d="M46 58 H554 L572 76 V482 L554 500 H46 L28 482 V76 Z" class="substrate"/>
  <path d="M48 66 H552 L564 78 V480 L552 492 H48 L36 480 V78 Z" class="substrate-inset"/>
  <g class="routing"><g><path d="M90 190 H540" class="trace trace-a"/><path d="M56 190 H76" class="port-mark port-a"/><text x="68" y="178" class="port-text" text-anchor="middle">A0</text></g><g><path d="M90 300 H540" class="trace trace-a"/><path d="M56 300 H76" class="port-mark port-a"/><text x="68" y="288" class="port-text" text-anchor="middle">A1</text></g><g><path d="M90 410 H540" class="trace trace-a"/><path d="M56 410 H76" class="port-mark port-a"/><text x="68" y="398" class="port-text" text-anchor="middle">A2</text></g><g><path d="M210 80 V520" class="trace trace-b"/><path d="M210 47 V63" class="port-mark port-b"/><text x="224" y="57" class="port-text">B0</text></g><g><path d="M320 80 V520" class="trace trace-b"/><path d="M320 47 V63" class="port-mark port-b"/><text x="334" y="57" class="port-text">B1</text></g><g><path d="M430 80 V520" class="trace trace-b"/><path d="M430 47 V63" class="port-mark port-b"/><text x="444" y="57" class="port-text">B2</text></g></g>
  <g class="ready-sweep motion-only" opacity="0"><path d="M145 255 L275 125" class="sweep-band"/><path d="M145 255 L275 125" class="sweep-line"/><animate attributeName="opacity" dur="10s" repeatCount="indefinite" values="0;0;1;0;0" keyTimes="0;0.362;0.37;0.378;1"/></g><g class="ready-sweep motion-only" opacity="0"><path d="M255 255 L275 235" class="sweep-band"/><path d="M255 255 L275 235" class="sweep-line"/><animate attributeName="opacity" dur="10s" repeatCount="indefinite" values="0;0;1;0;0" keyTimes="0;0.462;0.47;0.478;1"/></g><g class="ready-sweep motion-only" opacity="0"><path d="M365 255 L275 345" class="sweep-band"/><path d="M365 255 L275 345" class="sweep-line"/><animate attributeName="opacity" dur="10s" repeatCount="indefinite" values="0;0;1;0;0" keyTimes="0;0.562;0.57;0.578;1"/></g><g class="ready-sweep motion-only" opacity="0"><path d="M365 365 L385 345" class="sweep-band"/><path d="M365 365 L385 345" class="sweep-line"/><animate attributeName="opacity" dur="10s" repeatCount="indefinite" values="0;0;1;0;0" keyTimes="0;0.662;0.67;0.678;1"/></g><g class="ready-sweep motion-only" opacity="0"><path d="M365 475 L495 345" class="sweep-band"/><path d="M365 475 L495 345" class="sweep-line"/><animate attributeName="opacity" dur="10s" repeatCount="indefinite" values="0;0;1;0;0" keyTimes="0;0.762;0.77;0.778;1"/></g>
  <g class="packets"><g class="motion-only" opacity="0"><path class="packet-a" d="M-19 -9 H10 L19 0 L10 9 H-19 Z"/><text class="packet-label packet-label-a" y="3">a00</text><animateMotion dur="10s" repeatCount="indefinite" calcMode="linear" keyPoints="0;1;1" keyTimes="0;0.4;1" path="M100 190 H540"/><animate attributeName="opacity" dur="10s" repeatCount="indefinite" values="1;1;0;0" keyTimes="0;0.395;0.4;1"/></g><g class="motion-only" opacity="0"><path class="packet-a" d="M-19 -9 H10 L19 0 L10 9 H-19 Z"/><text class="packet-label packet-label-a" y="3">a01</text><animateMotion dur="10s" repeatCount="indefinite" calcMode="linear" keyPoints="0;0;1;1" keyTimes="0;0.1;0.5;1" path="M100 190 H540"/><animate attributeName="opacity" dur="10s" repeatCount="indefinite" values="0;0;1;1;0;0" keyTimes="0;0.095;0.1;0.495;0.5;1"/></g><g class="motion-only" opacity="0"><path class="packet-a" d="M-19 -9 H10 L19 0 L10 9 H-19 Z"/><text class="packet-label packet-label-a" y="3">a02</text><animateMotion dur="10s" repeatCount="indefinite" calcMode="linear" keyPoints="0;0;1;1" keyTimes="0;0.2;0.6;1" path="M100 190 H540"/><animate attributeName="opacity" dur="10s" repeatCount="indefinite" values="0;0;1;1;0;0" keyTimes="0;0.195;0.2;0.595;0.6;1"/></g><g class="motion-only" opacity="0"><path class="packet-a" d="M-19 -9 H10 L19 0 L10 9 H-19 Z"/><text class="packet-label packet-label-a" y="3">a10</text><animateMotion dur="10s" repeatCount="indefinite" calcMode="linear" keyPoints="0;0;1;1" keyTimes="0;0.1;0.5;1" path="M100 300 H540"/><animate attributeName="opacity" dur="10s" repeatCount="indefinite" values="0;0;1;1;0;0" keyTimes="0;0.095;0.1;0.495;0.5;1"/></g><g class="motion-only" opacity="0"><path class="packet-a" d="M-19 -9 H10 L19 0 L10 9 H-19 Z"/><text class="packet-label packet-label-a" y="3">a11</text><animateMotion dur="10s" repeatCount="indefinite" calcMode="linear" keyPoints="0;0;1;1" keyTimes="0;0.2;0.6;1" path="M100 300 H540"/><animate attributeName="opacity" dur="10s" repeatCount="indefinite" values="0;0;1;1;0;0" keyTimes="0;0.195;0.2;0.595;0.6;1"/></g><g class="motion-only" opacity="0"><path class="packet-a" d="M-19 -9 H10 L19 0 L10 9 H-19 Z"/><text class="packet-label packet-label-a" y="3">a12</text><animateMotion dur="10s" repeatCount="indefinite" calcMode="linear" keyPoints="0;0;1;1" keyTimes="0;0.3;0.7;1" path="M100 300 H540"/><animate attributeName="opacity" dur="10s" repeatCount="indefinite" values="0;0;1;1;0;0" keyTimes="0;0.295;0.3;0.695;0.7;1"/></g><g class="motion-only" opacity="0"><path class="packet-a" d="M-19 -9 H10 L19 0 L10 9 H-19 Z"/><text class="packet-label packet-label-a" y="3">a20</text><animateMotion dur="10s" repeatCount="indefinite" calcMode="linear" keyPoints="0;0;1;1" keyTimes="0;0.2;0.6;1" path="M100 410 H540"/><animate attributeName="opacity" dur="10s" repeatCount="indefinite" values="0;0;1;1;0;0" keyTimes="0;0.195;0.2;0.595;0.6;1"/></g><g class="motion-only" opacity="0"><path class="packet-a" d="M-19 -9 H10 L19 0 L10 9 H-19 Z"/><text class="packet-label packet-label-a" y="3">a21</text><animateMotion dur="10s" repeatCount="indefinite" calcMode="linear" keyPoints="0;0;1;1" keyTimes="0;0.3;0.7;1" path="M100 410 H540"/><animate attributeName="opacity" dur="10s" repeatCount="indefinite" values="0;0;1;1;0;0" keyTimes="0;0.295;0.3;0.695;0.7;1"/></g><g class="motion-only" opacity="0"><path class="packet-a" d="M-19 -9 H10 L19 0 L10 9 H-19 Z"/><text class="packet-label packet-label-a" y="3">a22</text><animateMotion dur="10s" repeatCount="indefinite" calcMode="linear" keyPoints="0;0;1;1" keyTimes="0;0.4;0.8;1" path="M100 410 H540"/><animate attributeName="opacity" dur="10s" repeatCount="indefinite" values="0;0;1;1;0;0" keyTimes="0;0.395;0.4;0.795;0.8;1"/></g><g class="motion-only" opacity="0"><path class="packet-b" d="M-9 -19 H9 V10 L0 19 L-9 10 Z"/><text class="packet-label packet-label-b" y="3">b00</text><animateMotion dur="10s" repeatCount="indefinite" calcMode="linear" keyPoints="0;1;1" keyTimes="0;0.4;1" path="M210 80 V520"/><animate attributeName="opacity" dur="10s" repeatCount="indefinite" values="1;1;0;0" keyTimes="0;0.395;0.4;1"/></g><g class="motion-only" opacity="0"><path class="packet-b" d="M-9 -19 H9 V10 L0 19 L-9 10 Z"/><text class="packet-label packet-label-b" y="3">b10</text><animateMotion dur="10s" repeatCount="indefinite" calcMode="linear" keyPoints="0;0;1;1" keyTimes="0;0.1;0.5;1" path="M210 80 V520"/><animate attributeName="opacity" dur="10s" repeatCount="indefinite" values="0;0;1;1;0;0" keyTimes="0;0.095;0.1;0.495;0.5;1"/></g><g class="motion-only" opacity="0"><path class="packet-b" d="M-9 -19 H9 V10 L0 19 L-9 10 Z"/><text class="packet-label packet-label-b" y="3">b20</text><animateMotion dur="10s" repeatCount="indefinite" calcMode="linear" keyPoints="0;0;1;1" keyTimes="0;0.2;0.6;1" path="M210 80 V520"/><animate attributeName="opacity" dur="10s" repeatCount="indefinite" values="0;0;1;1;0;0" keyTimes="0;0.195;0.2;0.595;0.6;1"/></g><g class="motion-only" opacity="0"><path class="packet-b" d="M-9 -19 H9 V10 L0 19 L-9 10 Z"/><text class="packet-label packet-label-b" y="3">b01</text><animateMotion dur="10s" repeatCount="indefinite" calcMode="linear" keyPoints="0;0;1;1" keyTimes="0;0.1;0.5;1" path="M320 80 V520"/><animate attributeName="opacity" dur="10s" repeatCount="indefinite" values="0;0;1;1;0;0" keyTimes="0;0.095;0.1;0.495;0.5;1"/></g><g class="motion-only" opacity="0"><path class="packet-b" d="M-9 -19 H9 V10 L0 19 L-9 10 Z"/><text class="packet-label packet-label-b" y="3">b11</text><animateMotion dur="10s" repeatCount="indefinite" calcMode="linear" keyPoints="0;0;1;1" keyTimes="0;0.2;0.6;1" path="M320 80 V520"/><animate attributeName="opacity" dur="10s" repeatCount="indefinite" values="0;0;1;1;0;0" keyTimes="0;0.195;0.2;0.595;0.6;1"/></g><g class="motion-only" opacity="0"><path class="packet-b" d="M-9 -19 H9 V10 L0 19 L-9 10 Z"/><text class="packet-label packet-label-b" y="3">b21</text><animateMotion dur="10s" repeatCount="indefinite" calcMode="linear" keyPoints="0;0;1;1" keyTimes="0;0.3;0.7;1" path="M320 80 V520"/><animate attributeName="opacity" dur="10s" repeatCount="indefinite" values="0;0;1;1;0;0" keyTimes="0;0.295;0.3;0.695;0.7;1"/></g><g class="motion-only" opacity="0"><path class="packet-b" d="M-9 -19 H9 V10 L0 19 L-9 10 Z"/><text class="packet-label packet-label-b" y="3">b02</text><animateMotion dur="10s" repeatCount="indefinite" calcMode="linear" keyPoints="0;0;1;1" keyTimes="0;0.2;0.6;1" path="M430 80 V520"/><animate attributeName="opacity" dur="10s" repeatCount="indefinite" values="0;0;1;1;0;0" keyTimes="0;0.195;0.2;0.595;0.6;1"/></g><g class="motion-only" opacity="0"><path class="packet-b" d="M-9 -19 H9 V10 L0 19 L-9 10 Z"/><text class="packet-label packet-label-b" y="3">b12</text><animateMotion dur="10s" repeatCount="indefinite" calcMode="linear" keyPoints="0;0;1;1" keyTimes="0;0.3;0.7;1" path="M430 80 V520"/><animate attributeName="opacity" dur="10s" repeatCount="indefinite" values="0;0;1;1;0;0" keyTimes="0;0.295;0.3;0.695;0.7;1"/></g><g class="motion-only" opacity="0"><path class="packet-b" d="M-9 -19 H9 V10 L0 19 L-9 10 Z"/><text class="packet-label packet-label-b" y="3">b22</text><animateMotion dur="10s" repeatCount="indefinite" calcMode="linear" keyPoints="0;0;1;1" keyTimes="0;0.4;0.8;1" path="M430 80 V520"/><animate attributeName="opacity" dur="10s" repeatCount="indefinite" values="0;0;1;1;0;0" keyTimes="0;0.395;0.4;0.795;0.8;1"/></g></g>
  <g class="nodes"><g transform="translate(210 190)">
        <use href="#node-shell"/>
        <circle r="48" class="phase-ring motion-only" opacity="0"><animate attributeName="opacity" dur="10s" repeatCount="indefinite" values="0;0;1;0;0;1;0;0;1;0;0" keyTimes="0;0.092;0.1;0.108;0.192;0.2;0.208;0.292;0.3;0.308;1"/></circle>
        <path d="M-40.4068 -14.7069 A43 43 0 0 1 21.5 -37.2391" class="accumulator-active motion-only" opacity="0"><animate attributeName="opacity" dur="10s" repeatCount="indefinite" values="0;0;1;1;0;0" keyTimes="0;0.099;0.1;0.9;0.95;1"/></path><path d="M32.9399 -27.6399 A43 43 0 0 1 21.5 37.2391" class="accumulator-active motion-only" opacity="0"><animate attributeName="opacity" dur="10s" repeatCount="indefinite" values="0;0;1;1;0;0" keyTimes="0;0.199;0.2;0.9;0.95;1"/></path><path d="M7.4669 42.3467 A43 43 0 0 1 -43 0" class="accumulator-active motion-only" opacity="0"><animate attributeName="opacity" dur="10s" repeatCount="indefinite" values="0;0;1;1;0;0" keyTimes="0;0.299;0.3;0.9;0.95;1"/></path>
        <g class="ready-contact motion-only" opacity="0">
          <circle cx="-7" cy="28" r="3"/><circle cx="7" cy="28" r="3"/><path d="M-4 28 H4"/>
          <animate attributeName="opacity" dur="10s" repeatCount="indefinite" values="0;0;1;1;0;0" keyTimes="0;0.369;0.37;0.9;0.95;1"/>
        </g>
        <g class="final-only"><path d="M-40.4068 -14.7069 A43 43 0 0 1 21.5 -37.2391" class="accumulator-active"/><path d="M32.9399 -27.6399 A43 43 0 0 1 21.5 37.2391" class="accumulator-active"/><path d="M7.4669 42.3467 A43 43 0 0 1 -43 0" class="accumulator-active"/><g class="ready-contact"><circle cx="-7" cy="28" r="3"/><circle cx="7" cy="28" r="3"/><path d="M-4 28 H4"/></g></g>
      </g><g transform="translate(320 190)">
        <use href="#node-shell"/>
        <circle r="48" class="phase-ring motion-only" opacity="0"><animate attributeName="opacity" dur="10s" repeatCount="indefinite" values="0;0;1;0;0;1;0;0;1;0;0" keyTimes="0;0.192;0.2;0.208;0.292;0.3;0.308;0.392;0.4;0.408;1"/></circle>
        <path d="M-40.4068 -14.7069 A43 43 0 0 1 21.5 -37.2391" class="accumulator-active motion-only" opacity="0"><animate attributeName="opacity" dur="10s" repeatCount="indefinite" values="0;0;1;1;0;0" keyTimes="0;0.199;0.2;0.9;0.95;1"/></path><path d="M32.9399 -27.6399 A43 43 0 0 1 21.5 37.2391" class="accumulator-active motion-only" opacity="0"><animate attributeName="opacity" dur="10s" repeatCount="indefinite" values="0;0;1;1;0;0" keyTimes="0;0.299;0.3;0.9;0.95;1"/></path><path d="M7.4669 42.3467 A43 43 0 0 1 -43 0" class="accumulator-active motion-only" opacity="0"><animate attributeName="opacity" dur="10s" repeatCount="indefinite" values="0;0;1;1;0;0" keyTimes="0;0.399;0.4;0.9;0.95;1"/></path>
        <g class="ready-contact motion-only" opacity="0">
          <circle cx="-7" cy="28" r="3"/><circle cx="7" cy="28" r="3"/><path d="M-4 28 H4"/>
          <animate attributeName="opacity" dur="10s" repeatCount="indefinite" values="0;0;1;1;0;0" keyTimes="0;0.469;0.47;0.9;0.95;1"/>
        </g>
        <g class="final-only"><path d="M-40.4068 -14.7069 A43 43 0 0 1 21.5 -37.2391" class="accumulator-active"/><path d="M32.9399 -27.6399 A43 43 0 0 1 21.5 37.2391" class="accumulator-active"/><path d="M7.4669 42.3467 A43 43 0 0 1 -43 0" class="accumulator-active"/><g class="ready-contact"><circle cx="-7" cy="28" r="3"/><circle cx="7" cy="28" r="3"/><path d="M-4 28 H4"/></g></g>
      </g><g transform="translate(430 190)">
        <use href="#node-shell"/>
        <circle r="48" class="phase-ring motion-only" opacity="0"><animate attributeName="opacity" dur="10s" repeatCount="indefinite" values="0;0;1;0;0;1;0;0;1;0;0" keyTimes="0;0.292;0.3;0.308;0.392;0.4;0.408;0.492;0.5;0.508;1"/></circle>
        <path d="M-40.4068 -14.7069 A43 43 0 0 1 21.5 -37.2391" class="accumulator-active motion-only" opacity="0"><animate attributeName="opacity" dur="10s" repeatCount="indefinite" values="0;0;1;1;0;0" keyTimes="0;0.299;0.3;0.9;0.95;1"/></path><path d="M32.9399 -27.6399 A43 43 0 0 1 21.5 37.2391" class="accumulator-active motion-only" opacity="0"><animate attributeName="opacity" dur="10s" repeatCount="indefinite" values="0;0;1;1;0;0" keyTimes="0;0.399;0.4;0.9;0.95;1"/></path><path d="M7.4669 42.3467 A43 43 0 0 1 -43 0" class="accumulator-active motion-only" opacity="0"><animate attributeName="opacity" dur="10s" repeatCount="indefinite" values="0;0;1;1;0;0" keyTimes="0;0.499;0.5;0.9;0.95;1"/></path>
        <g class="ready-contact motion-only" opacity="0">
          <circle cx="-7" cy="28" r="3"/><circle cx="7" cy="28" r="3"/><path d="M-4 28 H4"/>
          <animate attributeName="opacity" dur="10s" repeatCount="indefinite" values="0;0;1;1;0;0" keyTimes="0;0.569;0.57;0.9;0.95;1"/>
        </g>
        <g class="final-only"><path d="M-40.4068 -14.7069 A43 43 0 0 1 21.5 -37.2391" class="accumulator-active"/><path d="M32.9399 -27.6399 A43 43 0 0 1 21.5 37.2391" class="accumulator-active"/><path d="M7.4669 42.3467 A43 43 0 0 1 -43 0" class="accumulator-active"/><g class="ready-contact"><circle cx="-7" cy="28" r="3"/><circle cx="7" cy="28" r="3"/><path d="M-4 28 H4"/></g></g>
      </g><g transform="translate(210 300)">
        <use href="#node-shell"/>
        <circle r="48" class="phase-ring motion-only" opacity="0"><animate attributeName="opacity" dur="10s" repeatCount="indefinite" values="0;0;1;0;0;1;0;0;1;0;0" keyTimes="0;0.192;0.2;0.208;0.292;0.3;0.308;0.392;0.4;0.408;1"/></circle>
        <path d="M-40.4068 -14.7069 A43 43 0 0 1 21.5 -37.2391" class="accumulator-active motion-only" opacity="0"><animate attributeName="opacity" dur="10s" repeatCount="indefinite" values="0;0;1;1;0;0" keyTimes="0;0.199;0.2;0.9;0.95;1"/></path><path d="M32.9399 -27.6399 A43 43 0 0 1 21.5 37.2391" class="accumulator-active motion-only" opacity="0"><animate attributeName="opacity" dur="10s" repeatCount="indefinite" values="0;0;1;1;0;0" keyTimes="0;0.299;0.3;0.9;0.95;1"/></path><path d="M7.4669 42.3467 A43 43 0 0 1 -43 0" class="accumulator-active motion-only" opacity="0"><animate attributeName="opacity" dur="10s" repeatCount="indefinite" values="0;0;1;1;0;0" keyTimes="0;0.399;0.4;0.9;0.95;1"/></path>
        <g class="ready-contact motion-only" opacity="0">
          <circle cx="-7" cy="28" r="3"/><circle cx="7" cy="28" r="3"/><path d="M-4 28 H4"/>
          <animate attributeName="opacity" dur="10s" repeatCount="indefinite" values="0;0;1;1;0;0" keyTimes="0;0.469;0.47;0.9;0.95;1"/>
        </g>
        <g class="final-only"><path d="M-40.4068 -14.7069 A43 43 0 0 1 21.5 -37.2391" class="accumulator-active"/><path d="M32.9399 -27.6399 A43 43 0 0 1 21.5 37.2391" class="accumulator-active"/><path d="M7.4669 42.3467 A43 43 0 0 1 -43 0" class="accumulator-active"/><g class="ready-contact"><circle cx="-7" cy="28" r="3"/><circle cx="7" cy="28" r="3"/><path d="M-4 28 H4"/></g></g>
      </g><g transform="translate(320 300)">
        <use href="#node-shell"/>
        <circle r="48" class="phase-ring motion-only" opacity="0"><animate attributeName="opacity" dur="10s" repeatCount="indefinite" values="0;0;1;0;0;1;0;0;1;0;0" keyTimes="0;0.292;0.3;0.308;0.392;0.4;0.408;0.492;0.5;0.508;1"/></circle>
        <path d="M-40.4068 -14.7069 A43 43 0 0 1 21.5 -37.2391" class="accumulator-active motion-only" opacity="0"><animate attributeName="opacity" dur="10s" repeatCount="indefinite" values="0;0;1;1;0;0" keyTimes="0;0.299;0.3;0.9;0.95;1"/></path><path d="M32.9399 -27.6399 A43 43 0 0 1 21.5 37.2391" class="accumulator-active motion-only" opacity="0"><animate attributeName="opacity" dur="10s" repeatCount="indefinite" values="0;0;1;1;0;0" keyTimes="0;0.399;0.4;0.9;0.95;1"/></path><path d="M7.4669 42.3467 A43 43 0 0 1 -43 0" class="accumulator-active motion-only" opacity="0"><animate attributeName="opacity" dur="10s" repeatCount="indefinite" values="0;0;1;1;0;0" keyTimes="0;0.499;0.5;0.9;0.95;1"/></path>
        <g class="ready-contact motion-only" opacity="0">
          <circle cx="-7" cy="28" r="3"/><circle cx="7" cy="28" r="3"/><path d="M-4 28 H4"/>
          <animate attributeName="opacity" dur="10s" repeatCount="indefinite" values="0;0;1;1;0;0" keyTimes="0;0.569;0.57;0.9;0.95;1"/>
        </g>
        <g class="final-only"><path d="M-40.4068 -14.7069 A43 43 0 0 1 21.5 -37.2391" class="accumulator-active"/><path d="M32.9399 -27.6399 A43 43 0 0 1 21.5 37.2391" class="accumulator-active"/><path d="M7.4669 42.3467 A43 43 0 0 1 -43 0" class="accumulator-active"/><g class="ready-contact"><circle cx="-7" cy="28" r="3"/><circle cx="7" cy="28" r="3"/><path d="M-4 28 H4"/></g></g>
      </g><g transform="translate(430 300)">
        <use href="#node-shell"/>
        <circle r="48" class="phase-ring motion-only" opacity="0"><animate attributeName="opacity" dur="10s" repeatCount="indefinite" values="0;0;1;0;0;1;0;0;1;0;0" keyTimes="0;0.392;0.4;0.408;0.492;0.5;0.508;0.592;0.6;0.608;1"/></circle>
        <path d="M-40.4068 -14.7069 A43 43 0 0 1 21.5 -37.2391" class="accumulator-active motion-only" opacity="0"><animate attributeName="opacity" dur="10s" repeatCount="indefinite" values="0;0;1;1;0;0" keyTimes="0;0.399;0.4;0.9;0.95;1"/></path><path d="M32.9399 -27.6399 A43 43 0 0 1 21.5 37.2391" class="accumulator-active motion-only" opacity="0"><animate attributeName="opacity" dur="10s" repeatCount="indefinite" values="0;0;1;1;0;0" keyTimes="0;0.499;0.5;0.9;0.95;1"/></path><path d="M7.4669 42.3467 A43 43 0 0 1 -43 0" class="accumulator-active motion-only" opacity="0"><animate attributeName="opacity" dur="10s" repeatCount="indefinite" values="0;0;1;1;0;0" keyTimes="0;0.599;0.6;0.9;0.95;1"/></path>
        <g class="ready-contact motion-only" opacity="0">
          <circle cx="-7" cy="28" r="3"/><circle cx="7" cy="28" r="3"/><path d="M-4 28 H4"/>
          <animate attributeName="opacity" dur="10s" repeatCount="indefinite" values="0;0;1;1;0;0" keyTimes="0;0.669;0.67;0.9;0.95;1"/>
        </g>
        <g class="final-only"><path d="M-40.4068 -14.7069 A43 43 0 0 1 21.5 -37.2391" class="accumulator-active"/><path d="M32.9399 -27.6399 A43 43 0 0 1 21.5 37.2391" class="accumulator-active"/><path d="M7.4669 42.3467 A43 43 0 0 1 -43 0" class="accumulator-active"/><g class="ready-contact"><circle cx="-7" cy="28" r="3"/><circle cx="7" cy="28" r="3"/><path d="M-4 28 H4"/></g></g>
      </g><g transform="translate(210 410)">
        <use href="#node-shell"/>
        <circle r="48" class="phase-ring motion-only" opacity="0"><animate attributeName="opacity" dur="10s" repeatCount="indefinite" values="0;0;1;0;0;1;0;0;1;0;0" keyTimes="0;0.292;0.3;0.308;0.392;0.4;0.408;0.492;0.5;0.508;1"/></circle>
        <path d="M-40.4068 -14.7069 A43 43 0 0 1 21.5 -37.2391" class="accumulator-active motion-only" opacity="0"><animate attributeName="opacity" dur="10s" repeatCount="indefinite" values="0;0;1;1;0;0" keyTimes="0;0.299;0.3;0.9;0.95;1"/></path><path d="M32.9399 -27.6399 A43 43 0 0 1 21.5 37.2391" class="accumulator-active motion-only" opacity="0"><animate attributeName="opacity" dur="10s" repeatCount="indefinite" values="0;0;1;1;0;0" keyTimes="0;0.399;0.4;0.9;0.95;1"/></path><path d="M7.4669 42.3467 A43 43 0 0 1 -43 0" class="accumulator-active motion-only" opacity="0"><animate attributeName="opacity" dur="10s" repeatCount="indefinite" values="0;0;1;1;0;0" keyTimes="0;0.499;0.5;0.9;0.95;1"/></path>
        <g class="ready-contact motion-only" opacity="0">
          <circle cx="-7" cy="28" r="3"/><circle cx="7" cy="28" r="3"/><path d="M-4 28 H4"/>
          <animate attributeName="opacity" dur="10s" repeatCount="indefinite" values="0;0;1;1;0;0" keyTimes="0;0.569;0.57;0.9;0.95;1"/>
        </g>
        <g class="final-only"><path d="M-40.4068 -14.7069 A43 43 0 0 1 21.5 -37.2391" class="accumulator-active"/><path d="M32.9399 -27.6399 A43 43 0 0 1 21.5 37.2391" class="accumulator-active"/><path d="M7.4669 42.3467 A43 43 0 0 1 -43 0" class="accumulator-active"/><g class="ready-contact"><circle cx="-7" cy="28" r="3"/><circle cx="7" cy="28" r="3"/><path d="M-4 28 H4"/></g></g>
      </g><g transform="translate(320 410)">
        <use href="#node-shell"/>
        <circle r="48" class="phase-ring motion-only" opacity="0"><animate attributeName="opacity" dur="10s" repeatCount="indefinite" values="0;0;1;0;0;1;0;0;1;0;0" keyTimes="0;0.392;0.4;0.408;0.492;0.5;0.508;0.592;0.6;0.608;1"/></circle>
        <path d="M-40.4068 -14.7069 A43 43 0 0 1 21.5 -37.2391" class="accumulator-active motion-only" opacity="0"><animate attributeName="opacity" dur="10s" repeatCount="indefinite" values="0;0;1;1;0;0" keyTimes="0;0.399;0.4;0.9;0.95;1"/></path><path d="M32.9399 -27.6399 A43 43 0 0 1 21.5 37.2391" class="accumulator-active motion-only" opacity="0"><animate attributeName="opacity" dur="10s" repeatCount="indefinite" values="0;0;1;1;0;0" keyTimes="0;0.499;0.5;0.9;0.95;1"/></path><path d="M7.4669 42.3467 A43 43 0 0 1 -43 0" class="accumulator-active motion-only" opacity="0"><animate attributeName="opacity" dur="10s" repeatCount="indefinite" values="0;0;1;1;0;0" keyTimes="0;0.599;0.6;0.9;0.95;1"/></path>
        <g class="ready-contact motion-only" opacity="0">
          <circle cx="-7" cy="28" r="3"/><circle cx="7" cy="28" r="3"/><path d="M-4 28 H4"/>
          <animate attributeName="opacity" dur="10s" repeatCount="indefinite" values="0;0;1;1;0;0" keyTimes="0;0.669;0.67;0.9;0.95;1"/>
        </g>
        <g class="final-only"><path d="M-40.4068 -14.7069 A43 43 0 0 1 21.5 -37.2391" class="accumulator-active"/><path d="M32.9399 -27.6399 A43 43 0 0 1 21.5 37.2391" class="accumulator-active"/><path d="M7.4669 42.3467 A43 43 0 0 1 -43 0" class="accumulator-active"/><g class="ready-contact"><circle cx="-7" cy="28" r="3"/><circle cx="7" cy="28" r="3"/><path d="M-4 28 H4"/></g></g>
      </g><g transform="translate(430 410)">
        <use href="#node-shell"/>
        <circle r="48" class="phase-ring motion-only" opacity="0"><animate attributeName="opacity" dur="10s" repeatCount="indefinite" values="0;0;1;0;0;1;0;0;1;0;0" keyTimes="0;0.492;0.5;0.508;0.592;0.6;0.608;0.692;0.7;0.708;1"/></circle>
        <path d="M-40.4068 -14.7069 A43 43 0 0 1 21.5 -37.2391" class="accumulator-active motion-only" opacity="0"><animate attributeName="opacity" dur="10s" repeatCount="indefinite" values="0;0;1;1;0;0" keyTimes="0;0.499;0.5;0.9;0.95;1"/></path><path d="M32.9399 -27.6399 A43 43 0 0 1 21.5 37.2391" class="accumulator-active motion-only" opacity="0"><animate attributeName="opacity" dur="10s" repeatCount="indefinite" values="0;0;1;1;0;0" keyTimes="0;0.599;0.6;0.9;0.95;1"/></path><path d="M7.4669 42.3467 A43 43 0 0 1 -43 0" class="accumulator-active motion-only" opacity="0"><animate attributeName="opacity" dur="10s" repeatCount="indefinite" values="0;0;1;1;0;0" keyTimes="0;0.699;0.7;0.9;0.95;1"/></path>
        <g class="ready-contact motion-only" opacity="0">
          <circle cx="-7" cy="28" r="3"/><circle cx="7" cy="28" r="3"/><path d="M-4 28 H4"/>
          <animate attributeName="opacity" dur="10s" repeatCount="indefinite" values="0;0;1;1;0;0" keyTimes="0;0.769;0.77;0.9;0.95;1"/>
        </g>
        <g class="final-only"><path d="M-40.4068 -14.7069 A43 43 0 0 1 21.5 -37.2391" class="accumulator-active"/><path d="M32.9399 -27.6399 A43 43 0 0 1 21.5 37.2391" class="accumulator-active"/><path d="M7.4669 42.3467 A43 43 0 0 1 -43 0" class="accumulator-active"/><g class="ready-contact"><circle cx="-7" cy="28" r="3"/><circle cx="7" cy="28" r="3"/><path d="M-4 28 H4"/></g></g>
      </g></g>
  <g class="envelope">
    <text x="142" y="536" class="envelope-label">ACTIVE MACS · 1 3 6 7 6 3 1</text>
    <rect x="142" y="594" width="8" height="6" rx="2" class="envelope-bar envelope-active"/><rect x="157" y="582" width="8" height="18" rx="2" class="envelope-bar envelope-active"/><rect x="172" y="564" width="8" height="36" rx="2" class="envelope-bar envelope-active"/><rect x="187" y="558" width="8" height="42" rx="2" class="envelope-bar envelope-active"/><rect x="202" y="564" width="8" height="36" rx="2" class="envelope-bar envelope-active"/><rect x="217" y="582" width="8" height="18" rx="2" class="envelope-bar envelope-active"/><rect x="232" y="594" width="8" height="6" rx="2" class="envelope-bar envelope-active"/><circle r="4" class="cursor-active motion-only" opacity="0"><animateMotion dur="10s" repeatCount="indefinite" calcMode="discrete" keyPoints="0;0;0.1667;0.3333;0.5;0.6667;0.8333;1;1" keyTimes="0;0.1;0.2;0.3;0.4;0.5;0.6;0.7;1" path="M146 587 L161 575 L176 557 L191 551 L206 557 L221 575 L236 587"/><animate attributeName="opacity" dur="10s" repeatCount="indefinite" values="0;0;1;1;0;0" keyTimes="0;0.095;0.1;0.725;0.73;1"/></circle>
    <text x="396" y="536" class="envelope-label">READY C · 1 2 3 2 1</text>
    <rect x="396" y="594" width="8" height="6" rx="2" class="envelope-bar envelope-ready"/><rect x="411" y="588" width="8" height="12" rx="2" class="envelope-bar envelope-ready"/><rect x="426" y="582" width="8" height="18" rx="2" class="envelope-bar envelope-ready"/><rect x="441" y="588" width="8" height="12" rx="2" class="envelope-bar envelope-ready"/><rect x="456" y="594" width="8" height="6" rx="2" class="envelope-bar envelope-ready"/><circle r="4" class="cursor-ready motion-only" opacity="0"><animateMotion dur="10s" repeatCount="indefinite" calcMode="discrete" keyPoints="0;0;0.25;0.5;0.75;1;1" keyTimes="0;0.37;0.47;0.57;0.67;0.77;1" path="M400 587 L415 581 L430 575 L445 581 L460 587"/><animate attributeName="opacity" dur="10s" repeatCount="indefinite" values="0;0;1;1;0;0" keyTimes="0;0.365;0.37;0.795;0.8;1"/></circle>
  </g>
</svg>
